# This file uses centimeters as units for non-parametric coordinates.

mtllib barrel.mtl
g default
v -30.060109 98.461440 -0.210274
v -14.939455 98.851136 -26.579756
v 15.854391 98.722353 -26.870148
v 31.454380 98.763914 -0.584302
v 16.133714 98.423898 26.231824
v -14.585854 98.710491 26.380575
v -31.855773 100.282155 0.077772
v -16.308414 100.400755 -28.783460
v 16.524699 100.609943 -28.220378
v 33.678071 100.093969 -0.151903
v 16.936794 99.972315 27.902511
v -15.156913 100.175283 28.207392
v -36.838784 99.448901 1.603935
v -17.293229 100.261949 32.637425
v 18.534645 100.074068 32.222178
v 38.258174 99.873322 -0.365842
v 19.040613 100.271466 -33.316028
v -19.110640 100.111842 -32.675590
v -43.347714 78.833202 -0.475109
v -44.540263 67.811404 -0.512932
v -44.524919 28.886395 0.476159
v -44.195849 16.134258 0.087179
v -37.081751 -0.382434 -0.322424
v -18.459536 0.139184 -33.521941
v 20.184784 0.000001 -33.288259
v 37.928175 -0.744219 -0.181296
v 19.373250 -0.777039 31.974789
v -18.480354 -0.181942 32.610010
v -32.281258 -0.746608 -0.566026
v -15.814076 -0.566875 28.279715
v 17.512006 -0.939926 28.081853
v 33.746826 -0.848378 -0.350791
v 17.448675 -0.311715 -29.178867
v -15.757390 -0.843780 -28.862087
v -30.849505 1.145622 -0.491992
v -15.289782 1.190252 27.057431
v 16.466840 1.409172 27.194111
v 32.155425 1.341733 -0.105186
v 16.641540 1.399538 -27.612828
v -14.730940 1.344948 -27.661206
v -22.120012 15.895379 -39.694813
v -22.426066 28.759368 -39.537412
v -21.705963 67.688699 -39.197311
v -21.384760 78.905397 -38.580573
v 22.865673 79.018561 -38.966317
v 23.615781 67.820805 -39.634010
v 23.206471 28.888765 -39.792107
v 23.339927 16.155152 -39.694141
v 44.013233 16.065876 0.387319
v 44.540263 29.029746 0.244946
v 44.229128 67.727139 -0.236907
v 44.257568 79.007242 -0.290563
v 22.121234 79.136367 37.680762
v 22.603697 68.091766 37.938657
v 22.968538 28.902005 37.744680
v 22.730165 16.063021 37.124729
v -22.689996 15.964683 39.792107
v -22.374463 29.018348 39.266079
v -22.388096 67.854859 38.287127
v -21.803599 79.129678 37.719733
vt 0.338291 0.201352
vt 0.342727 0.160818
vt 0.500976 0.165322
vt 0.499032 0.205134
vt 0.333946 0.340056
vt 0.493397 0.344716
vt 0.336899 0.387170
vt 0.492754 0.391705
vt 0.172477 0.383249
vt 0.164350 0.335725
vt 0.173808 0.189226
vt 0.182468 0.148086
vt 0.988882 0.175058
vt 0.973352 0.121926
vt 0.999023 0.367784
vt 0.016555 0.412071
vt 0.817659 0.393171
vt 0.825577 0.345657
vt 0.656688 0.390656
vt 0.660254 0.343886
vt 0.830140 0.197664
vt 0.664625 0.205937
vt 0.821240 0.156217
vt 0.660808 0.165589
vt 0.644969 0.085843
vt 0.786597 0.080058
vt 0.504299 0.084869
vt 0.353420 0.082704
vt 0.207809 0.068636
vt 0.921868 0.031071
vt 0.786093 0.062767
vt 0.903781 0.018709
vt 0.219029 0.052220
vt 0.357880 0.068588
vt 0.223758 0.044361
vt 0.700515 0.675185
vt 0.500713 0.070478
vt 0.533502 0.511870
vt 0.644763 0.070329
vt 0.645339 0.062039
vt 0.055688 0.482731
vt 0.800395 0.458038
vt 0.649476 0.454621
vt 0.493694 0.457543
vt 0.341167 0.452772
vt 0.193022 0.446960
vt 0.197139 0.463025
vt 0.075367 0.497749
vt 0.795025 0.473198
vt 0.341438 0.466062
vt 0.343464 0.475931
vt 0.290820 0.681275
vt 0.491261 0.471033
vt 0.645991 0.470480
vt 0.791321 0.481449
vt 0.145950 0.489429
vt 0.500237 0.062009
vt 0.892981 0.011512
vt 0.099028 0.600509
vt 0.908502 0.517579
vt 0.645916 0.480083
vt 0.729424 0.561529
vt 0.782869 0.053993
vt 0.505239 0.623784
vt 0.588569 0.705816
vt 0.357572 0.059841
vt 0.171742 0.695408
vt 0.493398 0.480961
vt 0.336871 0.571414
vt 0.200719 0.471569
vt 0.265241 0.475196
vt 0.645784 0.478427
vt 0.084074 0.505308
vt 0.915665 0.509079
vt 0.103020 0.007729
vt 0.114166 0.000977
vt 0.935306 0.494682
vt 0.984423 0.428468
vt 0.083614 0.016913
vt 0.020215 0.103276
vt 0.000977 0.351187
vt 0.002395 0.156731
vn 0.999914 0.011041 0.007063
vn 0.979992 0.198913 0.007023
vn 0.493331 0.190322 0.848765
vn 0.500323 0.016565 0.865680
vn 0.999936 -0.004647 0.010321
vn 0.504193 0.003027 0.863586
vn 0.978984 -0.203310 0.015999
vn 0.498747 -0.210595 0.840774
vn 0.502540 -0.211516 -0.838281
vn 0.506800 -0.000676 -0.862063
vn 0.512712 0.014059 -0.858445
vn 0.490037 0.208061 -0.846507
vn -0.500326 0.020829 -0.865587
vn -0.487291 0.216704 -0.845923
vn -0.509897 0.003088 -0.860230
vn -0.491530 -0.221467 -0.842230
vn -0.974381 -0.224898 -0.001370
vn -0.999975 0.005625 0.004275
vn -0.474897 -0.226799 0.850314
vn -0.484939 0.009354 0.874498
vn -0.999596 0.026219 -0.010944
vn -0.495007 0.025002 0.868529
vn -0.976033 0.216959 -0.016985
vn -0.495170 0.201589 0.845085
vn -0.438362 0.392388 0.808623
vn -0.917883 0.395131 0.036915
vn 0.460555 0.383079 0.800712
vn 0.921219 0.389022 0.004082
vn 0.447240 0.401740 -0.799113
vn -0.482621 0.397955 -0.780198
vn 0.061374 0.997957 -0.017730
vn 0.017192 0.997838 0.063440
vn -0.043714 0.994677 0.093309
vn -0.093422 0.995560 -0.011515
vn -0.031478 0.997692 0.060158
vn -0.061974 0.998018 0.010964
vn -0.054439 0.990925 -0.122902
vn 0.062752 0.998020 0.004167
vn 0.027428 0.993704 -0.108624
vn 0.034216 0.998197 -0.049315
vn -0.434768 -0.510122 -0.742127
vn -0.856356 -0.516335 -0.007199
vn -0.416857 -0.517208 0.747479
vn 0.445383 -0.474041 0.759552
vn 0.889727 -0.456440 0.006959
vn 0.460878 -0.490158 -0.739822
vn -0.069730 -0.995102 0.070063
vn 0.050200 -0.997001 0.058903
vn 0.093612 -0.995584 -0.007006
vn -0.190002 -0.981678 -0.014408
vn -0.076989 -0.997017 -0.005395
vn -0.037663 -0.997307 0.062933
vn -0.128521 -0.979215 -0.156909
vn 0.047659 -0.991395 -0.121916
vn 0.077239 -0.997012 -0.000349
vn 0.041716 -0.997032 -0.064708
vn -0.029544 0.998557 -0.044849
vn 0.031795 0.997563 0.062098
vn -0.033598 -0.997097 -0.068324
vn 0.038056 -0.997379 0.061532
s 1
g barrel Barrel_grp
usemtl lambert3SG
f 51/1/1 52/2/2 53/3/3 54/4/4
f 50/5/5 51/1/1 54/4/4 55/6/6
f 49/7/7 50/5/5 55/6/6 56/8/8
f 50/5/5 49/7/7 48/9/9 47/10/10
f 51/1/1 50/5/5 47/10/10 46/11/11
f 52/2/2 51/1/1 46/11/11 45/12/12
f 43/82/13 44/80/14 45/12/12 46/11/11
f 42/81/15 43/82/13 46/11/11 47/10/10
f 41/16/16 42/81/15 47/10/10 48/9/9
f 42/15/15 41/78/16 22/17/17 21/18/18
f 21/18/18 22/17/17 57/19/19 58/20/20
f 58/20/20 57/19/19 56/8/8 55/6/6
f 43/13/13 42/15/15 21/18/18 20/21/21
f 20/21/21 21/18/18 58/20/20 59/22/22
f 59/22/22 58/20/20 55/6/6 54/4/4
f 44/14/14 43/13/13 20/21/21 19/23/23
f 19/23/23 20/21/21 59/22/22 60/24/24
f 60/24/24 59/22/22 54/4/4 53/3/3
f 14/25/25 13/26/26 19/23/23 60/24/24
f 15/27/27 14/25/25 60/24/24 53/3/3
f 16/28/28 15/27/27 53/3/3 52/2/2
f 17/29/29 16/28/28 52/2/2 45/12/12
f 18/79/30 17/29/29 45/12/12 44/80/14
f 44/14/14 19/23/23 13/26/26 18/30/30
f 18/30/30 13/26/26 7/31/31 8/32/32
f 17/29/29 18/79/30 8/75/32 9/33/33
f 10/34/34 9/33/33 3/35/35 4/66/36
f 16/28/28 17/29/29 9/33/33 10/34/34
f 15/27/27 16/28/28 10/34/34 11/37/37
f 1/63/38 7/31/31 12/39/39 6/40/40
f 14/25/25 15/27/27 11/37/37 12/39/39
f 12/39/39 7/31/31 13/26/26 14/25/25
f 24/77/41 23/42/42 22/17/17 41/78/16
f 57/19/19 22/17/17 23/42/42 28/43/43
f 56/8/8 57/19/19 28/43/43 27/44/44
f 49/7/7 56/8/8 27/44/44 26/45/45
f 25/46/46 24/41/41 41/16/16 48/9/9
f 48/9/9 49/7/7 26/45/45 25/46/46
f 24/41/41 25/46/46 33/47/47 34/48/48
f 34/74/48 29/49/49 23/42/42 24/77/41
f 32/50/50 33/47/47 25/46/46 26/45/45
f 38/51/51 39/70/52 33/47/47 32/50/50
f 31/53/53 32/50/50 26/45/45 27/44/44
f 28/43/43 23/42/42 29/49/49 30/54/54
f 30/54/54 29/49/49 35/55/55 36/72/56
f 30/54/54 31/53/53 27/44/44 28/43/43
f 5/62/57 4/36/36 3/65/35 2/64/58
f 2/76/58 3/35/35 9/33/33 8/75/32
f 2/58/58 8/32/32 7/31/31 1/63/38
f 1/38/38 6/61/40 5/62/57 2/64/58
f 11/37/37 10/34/34 4/66/36 5/57/57
f 5/57/57 6/40/40 12/39/39 11/37/37
f 37/59/59 36/56/56 35/71/55 40/69/60
f 31/53/53 30/54/54 36/72/56 37/68/59
f 40/69/60 39/52/52 38/67/51 37/59/59
f 37/68/59 38/51/51 32/50/50 31/53/53
f 34/48/48 33/47/47 39/70/52 40/73/60
f 40/60/60 35/55/55 29/49/49 34/74/48
