# This file uses centimeters as units for non-parametric coordinates.

mtllib default.mtl
v 0.923880 -1.000000 -0.382683
v 0.707107 -1.000000 -0.707106
v 0.382684 -1.000000 -0.923879
v 0.000001 -1.000000 -1.000000
v -0.382683 -1.000000 -0.923880
v -0.707106 -1.000000 -0.707107
v -0.923879 -1.000000 -0.382684
v -1.000000 -1.000000 -0.000000
v -0.923880 -1.000000 0.382683
v -0.707107 -1.000000 0.707107
v -0.382684 -1.000000 0.923879
v -0.000000 -1.000000 1.000000
v 0.382683 -1.000000 0.923880
v 0.707107 -1.000000 0.707107
v 0.923880 -1.000000 0.382683
v 1.000000 -1.000000 0.000000
v 0.000000 1.000000 0.000000
vt 0.963820 0.154329
vt 0.855433 0.073223
vt 0.693222 0.019030
vt 0.501880 0.000000
vt 0.310538 0.019030
vt 0.148326 0.073223
vt 0.039940 0.154329
vt 0.001880 0.250000
vt 0.039940 0.345671
vt 0.148326 0.426777
vt 0.310538 0.480970
vt 0.501880 0.500000
vt 0.693221 0.480970
vt 0.855433 0.426777
vt 0.963820 0.345671
vt 1.001880 0.250000
vt 0.000000 0.500000
vt 0.062500 0.500000
vt 0.125000 0.500000
vt 0.187500 0.500000
vt 0.250000 0.500000
vt 0.312500 0.500000
vt 0.375000 0.500000
vt 0.437500 0.500000
vt 0.500000 0.500000
vt 0.562500 0.500000
vt 0.625000 0.500000
vt 0.687500 0.500000
vt 0.750000 0.500000
vt 0.812500 0.500000
vt 0.875000 0.500000
vt 0.937500 0.500000
vt 1.000000 0.500000
vt 0.500000 1.000000
vn 0.000000 -1.000000 0.000000
vn 0.000000 -1.000000 0.000000
vn 0.000000 -1.000000 0.000000
vn 0.000000 -1.000000 0.000000
vn 0.000000 -1.000000 0.000000
vn 0.000000 -1.000000 0.000000
vn 0.000000 -1.000000 0.000000
vn 0.000000 -1.000000 0.000000
vn 0.000000 -1.000000 0.000000
vn 0.000000 -1.000000 0.000000
vn 0.000000 -1.000000 0.000000
vn 0.000000 -1.000000 0.000000
vn 0.000000 -1.000000 0.000000
vn 0.000000 -1.000000 0.000000
vn 0.000000 -1.000000 0.000000
vn 0.000000 -1.000000 0.000000
vn 0.826343 0.447214 -0.342282
vn 0.632456 0.447214 -0.632455
vn 0.000000 1.000000 -0.000001
vn 0.342283 0.447214 -0.826343
vn 0.000000 0.447214 -0.894427
vn -0.342282 0.447214 -0.826343
vn -0.632455 0.447214 -0.632456
vn -0.826343 0.447214 -0.342283
vn -0.894427 0.447214 -0.000000
vn -0.826343 0.447214 0.342282
vn -0.632456 0.447214 0.632455
vn -0.342283 0.447214 0.826343
vn -0.000000 0.447214 0.894427
vn 0.342282 0.447214 0.826343
vn 0.632455 0.447214 0.632456
vn 0.826343 0.447214 0.342283
vn 0.894427 0.447214 0.000000
g cone
usemtl default
f 1/1/1 16/16/2 15/15/3 14/14/4 13/13/5 12/12/6 11/11/7 10/10/8 9/9/9 8/8/10 7/7/11 6/6/12 5/5/13 4/4/14 3/3/15 2/2/16
f 1/17/17 2/18/18 17/34/19
f 2/18/18 3/19/20 17/34/19
f 3/19/20 4/20/21 17/34/19
f 4/20/21 5/21/22 17/34/19
f 5/21/22 6/22/23 17/34/19
f 6/22/23 7/23/24 17/34/19
f 7/23/24 8/24/25 17/34/19
f 8/24/25 9/25/26 17/34/19
f 9/25/26 10/26/27 17/34/19
f 10/26/27 11/27/28 17/34/19
f 11/27/28 12/28/29 17/34/19
f 12/28/29 13/29/30 17/34/19
f 13/29/30 14/30/31 17/34/19
f 14/30/31 15/31/32 17/34/19
f 15/31/32 16/32/33 17/34/19
f 16/32/33 1/33/17 17/34/19
