# This file uses centimeters as units for non-parametric coordinates.

mtllib default.mtl
v 0.923880 -1.000000 -0.382683
v 0.707107 -1.000000 -0.707106
v 0.382684 -1.000000 -0.923879
v 0.000001 -1.000000 -1.000000
v -0.382683 -1.000000 -0.923880
v -0.707106 -1.000000 -0.707107
v -0.923879 -1.000000 -0.382684
v -1.000000 -1.000000 -0.000000
v -0.923880 -1.000000 0.382683
v -0.707107 -1.000000 0.707107
v -0.382684 -1.000000 0.923879
v -0.000000 -1.000000 1.000000
v 0.382683 -1.000000 0.923880
v 0.707107 -1.000000 0.707107
v 0.923880 -1.000000 0.382683
v 1.000000 -1.000000 0.000000
v 0.923880 1.000000 -0.382683
v 0.707107 1.000000 -0.707106
v 0.382684 1.000000 -0.923879
v 0.000001 1.000000 -1.000000
v -0.382683 1.000000 -0.923880
v -0.707106 1.000000 -0.707107
v -0.923879 1.000000 -0.382684
v -1.000000 1.000000 -0.000000
v -0.923880 1.000000 0.382683
v -0.707107 1.000000 0.707107
v -0.382684 1.000000 0.923879
v -0.000000 1.000000 1.000000
v 0.382683 1.000000 0.923880
v 0.707107 1.000000 0.707107
v 0.923880 1.000000 0.382683
v 1.000000 1.000000 0.000000
v 0.000000 -1.000000 0.000000
v 0.000000 1.000000 0.000000
vt 0.961940 -0.691341
vt 0.853554 -0.853553
vt 0.691342 -0.961940
vt 0.500000 -1.000000
vt 0.308659 -0.961940
vt 0.146447 -0.853554
vt 0.038060 -0.691342
vt 0.000000 -0.500000
vt 0.038060 -0.308658
vt 0.146447 -0.146447
vt 0.308658 -0.038060
vt 0.500000 0.000000
vt 0.691342 -0.038060
vt 0.853553 -0.146447
vt 0.961940 -0.308658
vt 1.000000 -0.500000
vt 0.000000 0.000000
vt 0.062500 0.000000
vt 0.125000 0.000000
vt 0.187500 0.000000
vt 0.250000 0.000000
vt 0.312500 0.000000
vt 0.375000 0.000000
vt 0.437500 0.000000
vt 0.500000 0.000000
vt 0.562500 0.000000
vt 0.625000 0.000000
vt 0.687500 0.000000
vt 0.750000 0.000000
vt 0.812500 0.000000
vt 0.875000 0.000000
vt 0.937500 0.000000
vt 1.000000 0.000000
vt 0.000000 1.000000
vt 0.062500 1.000000
vt 0.125000 1.000000
vt 0.187500 1.000000
vt 0.250000 1.000000
vt 0.312500 1.000000
vt 0.375000 1.000000
vt 0.437500 1.000000
vt 0.500000 1.000000
vt 0.562500 1.000000
vt 0.625000 1.000000
vt 0.687500 1.000000
vt 0.750000 1.000000
vt 0.812500 1.000000
vt 0.875000 1.000000
vt 0.937500 1.000000
vt 1.000000 1.000000
vt 0.961940 1.308659
vt 0.853554 1.146447
vt 0.691342 1.038060
vt 0.500000 1.000000
vt 0.308659 1.038060
vt 0.146447 1.146446
vt 0.038060 1.308658
vt 0.000000 1.500000
vt 0.038060 1.691342
vt 0.146447 1.853553
vt 0.308658 1.961940
vt 0.500000 2.000000
vt 0.691342 1.961940
vt 0.853553 1.853553
vt 0.961940 1.691342
vt 1.000000 1.500000
vt 0.500000 -0.500000
vt 0.500000 1.500000
vn 0.923880 0.000000 -0.382683
vn 0.707107 0.000000 -0.707107
vn 0.707107 0.000000 -0.707107
vn 0.923880 0.000000 -0.382683
vn 0.382684 0.000000 -0.923879
vn 0.382684 0.000000 -0.923879
vn 0.000001 0.000000 -1.000000
vn 0.000001 0.000000 -1.000000
vn -0.382683 0.000000 -0.923880
vn -0.382683 0.000000 -0.923880
vn -0.707106 0.000000 -0.707107
vn -0.707106 0.000000 -0.707107
vn -0.923879 0.000000 -0.382684
vn -0.923879 0.000000 -0.382684
vn -1.000000 0.000000 -0.000000
vn -1.000000 0.000000 -0.000000
vn -0.923880 0.000000 0.382683
vn -0.923880 0.000000 0.382683
vn -0.707107 0.000000 0.707107
vn -0.707107 0.000000 0.707107
vn -0.382684 0.000000 0.923879
vn -0.382684 0.000000 0.923879
vn -0.000000 0.000000 1.000000
vn -0.000000 0.000000 1.000000
vn 0.382683 0.000000 0.923880
vn 0.382683 0.000000 0.923880
vn 0.707107 0.000000 0.707107
vn 0.707107 0.000000 0.707107
vn 0.923880 0.000000 0.382684
vn 0.923880 0.000000 0.382684
vn 1.000000 0.000000 0.000000
vn 1.000000 0.000000 0.000000
vn 0.000000 -1.000000 0.000000
vn 0.000000 -1.000000 0.000000
vn 0.000000 -1.000000 0.000000
vn 0.000000 -1.000000 0.000000
vn 0.000000 -1.000000 0.000000
vn 0.000000 -1.000000 0.000000
vn 0.000000 -1.000000 0.000000
vn 0.000000 -1.000000 0.000000
vn 0.000000 -1.000000 0.000000
vn 0.000000 -1.000000 0.000000
vn 0.000000 -1.000000 0.000000
vn 0.000000 -1.000000 0.000000
vn 0.000000 -1.000000 0.000000
vn 0.000000 -1.000000 0.000000
vn 0.000000 -1.000000 0.000000
vn 0.000000 -1.000000 0.000000
vn 0.000000 -1.000000 0.000000
vn 0.000000 1.000000 0.000000
vn 0.000000 1.000000 0.000000
vn 0.000000 1.000000 0.000000
vn 0.000000 1.000000 0.000000
vn 0.000000 1.000000 0.000000
vn 0.000000 1.000000 0.000000
vn 0.000000 1.000000 0.000000
vn 0.000000 1.000000 0.000000
vn 0.000000 1.000000 0.000000
vn 0.000000 1.000000 0.000000
vn 0.000000 1.000000 0.000000
vn 0.000000 1.000000 0.000000
vn 0.000000 1.000000 0.000000
vn 0.000000 1.000000 0.000000
vn 0.000000 1.000000 0.000000
vn 0.000000 1.000000 0.000000
vn 0.000000 1.000000 0.000000
g cylinder
usemtl default
f 1/17/1 2/18/2 18/35/3 17/34/4
f 2/18/2 3/19/5 19/36/6 18/35/3
f 3/19/5 4/20/7 20/37/8 19/36/6
f 4/20/7 5/21/9 21/38/10 20/37/8
f 5/21/9 6/22/11 22/39/12 21/38/10
f 6/22/11 7/23/13 23/40/14 22/39/12
f 7/23/13 8/24/15 24/41/16 23/40/14
f 8/24/15 9/25/17 25/42/18 24/41/16
f 9/25/17 10/26/19 26/43/20 25/42/18
f 10/26/19 11/27/21 27/44/22 26/43/20
f 11/27/21 12/28/23 28/45/24 27/44/22
f 12/28/23 13/29/25 29/46/26 28/45/24
f 13/29/25 14/30/27 30/47/28 29/46/26
f 14/30/27 15/31/29 31/48/30 30/47/28
f 15/31/29 16/32/31 32/49/32 31/48/30
f 16/32/31 1/33/1 17/50/4 32/49/32
f 2/2/33 1/1/34 33/67/35
f 3/3/36 2/2/33 33/67/35
f 4/4/37 3/3/36 33/67/35
f 5/5/38 4/4/37 33/67/35
f 6/6/39 5/5/38 33/67/35
f 7/7/40 6/6/39 33/67/35
f 8/8/41 7/7/40 33/67/35
f 9/9/42 8/8/41 33/67/35
f 10/10/43 9/9/42 33/67/35
f 11/11/44 10/10/43 33/67/35
f 12/12/45 11/11/44 33/67/35
f 13/13/46 12/12/45 33/67/35
f 14/14/47 13/13/46 33/67/35
f 15/15/48 14/14/47 33/67/35
f 16/16/49 15/15/48 33/67/35
f 1/1/34 16/16/49 33/67/35
f 17/65/50 18/64/51 34/68/52
f 18/64/51 19/63/53 34/68/52
f 19/63/53 20/62/54 34/68/52
f 20/62/54 21/61/55 34/68/52
f 21/61/55 22/60/56 34/68/52
f 22/60/56 23/59/57 34/68/52
f 23/59/57 24/58/58 34/68/52
f 24/58/58 25/57/59 34/68/52
f 25/57/59 26/56/60 34/68/52
f 26/56/60 27/55/61 34/68/52
f 27/55/61 28/54/62 34/68/52
f 28/54/62 29/53/63 34/68/52
f 29/53/63 30/52/64 34/68/52
f 30/52/64 31/51/65 34/68/52
f 31/51/65 32/66/66 34/68/52
f 32/66/66 17/65/50 34/68/52
v 0.923880 -1.000000 -0.382683
v 0.707107 -1.000000 -0.707106
v 0.382684 -1.000000 -0.923879
v 0.000001 -1.000000 -1.000000
v -0.382683 -1.000000 -0.923880
v -0.707106 -1.000000 -0.707107
v -0.923879 -1.000000 -0.382684
v -1.000000 -1.000000 -0.000000
v -0.923880 -1.000000 0.382683
v -0.707107 -1.000000 0.707107
v -0.382684 -1.000000 0.923879
v -0.000000 -1.000000 1.000000
v 0.382683 -1.000000 0.923880
v 0.707107 -1.000000 0.707107
v 0.923880 -1.000000 0.382683
v 1.000000 -1.000000 0.000000
v 0.923880 1.000000 -0.382683
v 0.707107 1.000000 -0.707106
v 0.382684 1.000000 -0.923879
v 0.000001 1.000000 -1.000000
v -0.382683 1.000000 -0.923880
v -0.707106 1.000000 -0.707107
v -0.923879 1.000000 -0.382684
v -1.000000 1.000000 -0.000000
v -0.923880 1.000000 0.382683
v -0.707107 1.000000 0.707107
v -0.382684 1.000000 0.923879
v -0.000000 1.000000 1.000000
v 0.382683 1.000000 0.923880
v 0.707107 1.000000 0.707107
v 0.923880 1.000000 0.382683
v 1.000000 1.000000 0.000000
v 0.000000 -1.000000 0.000000
v 0.000000 1.000000 0.000000
vt 0.961940 -0.691341
vt 0.853554 -0.853553
vt 0.691342 -0.961940
vt 0.500000 -1.000000
vt 0.308659 -0.961940
vt 0.146447 -0.853554
vt 0.038060 -0.691342
vt 0.000000 -0.500000
vt 0.038060 -0.308658
vt 0.146447 -0.146447
vt 0.308658 -0.038060
vt 0.500000 0.000000
vt 0.691342 -0.038060
vt 0.853553 -0.146447
vt 0.961940 -0.308658
vt 1.000000 -0.500000
vt 0.000000 0.000000
vt 0.062500 0.000000
vt 0.125000 0.000000
vt 0.187500 0.000000
vt 0.250000 0.000000
vt 0.312500 0.000000
vt 0.375000 0.000000
vt 0.437500 0.000000
vt 0.500000 0.000000
vt 0.562500 0.000000
vt 0.625000 0.000000
vt 0.687500 0.000000
vt 0.750000 0.000000
vt 0.812500 0.000000
vt 0.875000 0.000000
vt 0.937500 0.000000
vt 1.000000 0.000000
vt 0.000000 1.000000
vt 0.062500 1.000000
vt 0.125000 1.000000
vt 0.187500 1.000000
vt 0.250000 1.000000
vt 0.312500 1.000000
vt 0.375000 1.000000
vt 0.437500 1.000000
vt 0.500000 1.000000
vt 0.562500 1.000000
vt 0.625000 1.000000
vt 0.687500 1.000000
vt 0.750000 1.000000
vt 0.812500 1.000000
vt 0.875000 1.000000
vt 0.937500 1.000000
vt 1.000000 1.000000
vt 0.961940 1.308659
vt 0.853554 1.146447
vt 0.691342 1.038060
vt 0.500000 1.000000
vt 0.308659 1.038060
vt 0.146447 1.146446
vt 0.038060 1.308658
vt 0.000000 1.500000
vt 0.038060 1.691342
vt 0.146447 1.853553
vt 0.308658 1.961940
vt 0.500000 2.000000
vt 0.691342 1.961940
vt 0.853553 1.853553
vt 0.961940 1.691342
vt 1.000000 1.500000
vt 0.500000 -0.500000
vt 0.500000 1.500000
vn 0.923880 0.000000 -0.382683
vn 0.707107 0.000000 -0.707107
vn 0.707107 0.000000 -0.707107
vn 0.923880 0.000000 -0.382683
vn 0.382684 0.000000 -0.923879
vn 0.382684 0.000000 -0.923879
vn 0.000001 0.000000 -1.000000
vn 0.000001 0.000000 -1.000000
vn -0.382683 0.000000 -0.923880
vn -0.382683 0.000000 -0.923880
vn -0.707106 0.000000 -0.707107
vn -0.707106 0.000000 -0.707107
vn -0.923879 0.000000 -0.382684
vn -0.923879 0.000000 -0.382684
vn -1.000000 0.000000 -0.000000
vn -1.000000 0.000000 -0.000000
vn -0.923880 0.000000 0.382683
vn -0.923880 0.000000 0.382683
vn -0.707107 0.000000 0.707107
vn -0.707107 0.000000 0.707107
vn -0.382684 0.000000 0.923879
vn -0.382684 0.000000 0.923879
vn -0.000000 0.000000 1.000000
vn -0.000000 0.000000 1.000000
vn 0.382683 0.000000 0.923880
vn 0.382683 0.000000 0.923880
vn 0.707107 0.000000 0.707107
vn 0.707107 0.000000 0.707107
vn 0.923880 0.000000 0.382684
vn 0.923880 0.000000 0.382684
vn 1.000000 0.000000 0.000000
vn 1.000000 0.000000 0.000000
vn 0.000000 -1.000000 0.000000
vn 0.000000 -1.000000 0.000000
vn 0.000000 -1.000000 0.000000
vn 0.000000 -1.000000 0.000000
vn 0.000000 -1.000000 0.000000
vn 0.000000 -1.000000 0.000000
vn 0.000000 -1.000000 0.000000
vn 0.000000 -1.000000 0.000000
vn 0.000000 -1.000000 0.000000
vn 0.000000 -1.000000 0.000000
vn 0.000000 -1.000000 0.000000
vn 0.000000 -1.000000 0.000000
vn 0.000000 -1.000000 0.000000
vn 0.000000 -1.000000 0.000000
vn 0.000000 -1.000000 0.000000
vn 0.000000 -1.000000 0.000000
vn 0.000000 -1.000000 0.000000
vn 0.000000 1.000000 0.000000
vn 0.000000 1.000000 0.000000
vn 0.000000 1.000000 0.000000
vn 0.000000 1.000000 0.000000
vn 0.000000 1.000000 0.000000
vn 0.000000 1.000000 0.000000
vn 0.000000 1.000000 0.000000
vn 0.000000 1.000000 0.000000
vn 0.000000 1.000000 0.000000
vn 0.000000 1.000000 0.000000
vn 0.000000 1.000000 0.000000
vn 0.000000 1.000000 0.000000
vn 0.000000 1.000000 0.000000
vn 0.000000 1.000000 0.000000
vn 0.000000 1.000000 0.000000
vn 0.000000 1.000000 0.000000
vn 0.000000 1.000000 0.000000
f 35/85/67 36/86/68 52/103/69 51/102/70
f 36/86/68 37/87/71 53/104/72 52/103/69
f 37/87/71 38/88/73 54/105/74 53/104/72
f 38/88/73 39/89/75 55/106/76 54/105/74
f 39/89/75 40/90/77 56/107/78 55/106/76
f 40/90/77 41/91/79 57/108/80 56/107/78
f 41/91/79 42/92/81 58/109/82 57/108/80
f 42/92/81 43/93/83 59/110/84 58/109/82
f 43/93/83 44/94/85 60/111/86 59/110/84
f 44/94/85 45/95/87 61/112/88 60/111/86
f 45/95/87 46/96/89 62/113/90 61/112/88
f 46/96/89 47/97/91 63/114/92 62/113/90
f 47/97/91 48/98/93 64/115/94 63/114/92
f 48/98/93 49/99/95 65/116/96 64/115/94
f 49/99/95 50/100/97 66/117/98 65/116/96
f 50/100/97 35/101/67 51/118/70 66/117/98
f 36/70/99 35/69/100 67/135/101
f 37/71/102 36/70/99 67/135/101
f 38/72/103 37/71/102 67/135/101
f 39/73/104 38/72/103 67/135/101
f 40/74/105 39/73/104 67/135/101
f 41/75/106 40/74/105 67/135/101
f 42/76/107 41/75/106 67/135/101
f 43/77/108 42/76/107 67/135/101
f 44/78/109 43/77/108 67/135/101
f 45/79/110 44/78/109 67/135/101
f 46/80/111 45/79/110 67/135/101
f 47/81/112 46/80/111 67/135/101
f 48/82/113 47/81/112 67/135/101
f 49/83/114 48/82/113 67/135/101
f 50/84/115 49/83/114 67/135/101
f 35/69/100 50/84/115 67/135/101
f 51/133/116 52/132/117 68/136/118
f 52/132/117 53/131/119 68/136/118
f 53/131/119 54/130/120 68/136/118
f 54/130/120 55/129/121 68/136/118
f 55/129/121 56/128/122 68/136/118
f 56/128/122 57/127/123 68/136/118
f 57/127/123 58/126/124 68/136/118
f 58/126/124 59/125/125 68/136/118
f 59/125/125 60/124/126 68/136/118
f 60/124/126 61/123/127 68/136/118
f 61/123/127 62/122/128 68/136/118
f 62/122/128 63/121/129 68/136/118
f 63/121/129 64/120/130 68/136/118
f 64/120/130 65/119/131 68/136/118
f 65/119/131 66/134/132 68/136/118
f 66/134/132 51/133/116 68/136/118
